<svg xmlns="http://www.w3.org/2000/svg" viewBox="0 0 64 64" role="img" aria-label="Notas de Corte">
  <defs>
    <linearGradient id="bg" x1="0" y1="0" x2="1" y2="1">
      <stop offset="0%" stop-color="#031f3f"/>
      <stop offset="52%" stop-color="#0a4f98"/>
      <stop offset="100%" stop-color="#0f73d0"/>
    </linearGradient>
    <radialGradient id="glow" cx="50%" cy="20%" r="75%">
      <stop offset="0%" stop-color="#8ad8ff" stop-opacity="0.34"/>
      <stop offset="100%" stop-color="#8ad8ff" stop-opacity="0"/>
    </radialGradient>
    <pattern id="grid" width="8" height="8" patternUnits="userSpaceOnUse">
      <path d="M8 0H0V8" fill="none" stroke="#d7ecff" stroke-opacity="0.08" stroke-width="1"/>
    </pattern>
  </defs>
  <rect width="64" height="64" rx="16" fill="url(#bg)"/>
  <rect width="64" height="64" rx="16" fill="url(#glow)"/>
  <rect x="1.25" y="1.25" width="61.5" height="61.5" rx="14.75" fill="none" stroke="#c6e7ff" stroke-opacity="0.24" stroke-width="1.5"/>
  <rect x="8" y="8" width="48" height="48" rx="12" fill="url(#grid)"/>

  <g stroke="#081c35" stroke-width="2">
    <g fill="#5ce1ff">
      <rect x="13" y="38" width="10" height="10" rx="3"/>
      <rect x="13" y="26" width="10" height="10" rx="3"/>
    </g>
    <g fill="#ffd85a">
      <rect x="27" y="38" width="10" height="10" rx="3"/>
      <rect x="27" y="26" width="10" height="10" rx="3"/>
      <rect x="27" y="14" width="10" height="10" rx="3"/>
    </g>
    <g fill="#ff7b72">
      <rect x="41" y="38" width="10" height="10" rx="3"/>
      <rect x="41" y="26" width="10" height="10" rx="3"/>
      <rect x="41" y="14" width="10" height="10" rx="3"/>
      <rect x="41" y="2" width="10" height="10" rx="3"/>
    </g>
  </g>

  <g fill="#ffffff" opacity="0.28">
    <rect x="15.5" y="28.5" width="5" height="1.6" rx="0.8"/>
    <rect x="29.5" y="16.5" width="5" height="1.6" rx="0.8"/>
    <rect x="43.5" y="4.5" width="5" height="1.6" rx="0.8"/>
  </g>
</svg>
